<?xml version="1.0" standalone="no"?><!DOCTYPE svg PUBLIC "-//W3C//DTD SVG 1.1//EN" "http://www.w3.org/Graphics/SVG/1.1/DTD/svg11.dtd"><svg t="1713581674094" class="icon" viewBox="0 0 1024 1024" version="1.1" xmlns="http://www.w3.org/2000/svg" p-id="4521" xmlns:xlink="http://www.w3.org/1999/xlink" width="200" height="200"><path d="M491.52 472.576z" fill="#00A4E3" p-id="4522"></path><path d="M510.464 478.72c-4.096 2.048-11.264 4.096-18.432 4.096 0 3.072-1.024 6.144-2.048 8.704 0 2.56-0.512 5.632-0.512 9.216s-0.512 7.68-0.512 10.752c4.096 2.048 7.68 3.072 11.264 3.072 3.584 0.512 7.68-0.512 10.24-1.536 1.024-5.12 1.024-10.752 1.024-16.384 0.512-6.144 0-12.288-1.024-17.92zM489.472 517.12v1.536c0 1.536 0 3.072 0.512 5.12 0 1.024 0.512 2.048 0.512 3.072 1.024 3.072 2.048 5.632 5.12 6.144 5.632 1.024 8.704-8.192 9.728-11.776v-1.536c-10.752 2.048-15.872-2.56-15.872-2.56z" fill="#FFFFFF" p-id="4523"></path><path d="M953.856 778.24v-2.56c0-1.024 0-2.56-0.512-3.584-0.512-2.048-0.512-4.096-1.024-6.144v-1.024c-0.512-2.56-1.024-5.12-2.048-7.68v-1.024c-4.608-17.408-13.312-36.352-24.576-55.296l-6.656-11.776-0.512 0.512c-26.624-41.472-65.024-82.432-101.376-109.056-57.344-41.984-121.344-74.752-165.888-95.232 12.288-25.6 20.992-52.224 26.112-78.336 12.8-8.192 37.376-18.432 64-20.992 16.896-1.536 29.184 1.024 40.96 3.584 14.848 3.072 30.72 6.656 49.152-1.024 18.432-8.192 32.768-25.6 36.864-45.568 4.096-19.968-2.048-39.936-17.408-55.296l-0.512-0.512c-32.256-29.184-65.536-40.448-98.816-33.792-14.848 3.072-28.16 9.728-40.96 17.92 0-4.096 0.512-8.192 0.512-12.288-0.512-58.88-26.112-99.328-26.112-99.328s-10.752 34.816-56.32 41.984c-22.528-26.624-50.688-46.592-82.432-59.904-64-39.424-173.568-66.048-330.24 35.328C60.416 283.648 65.024 402.432 81.92 461.824c-0.512 14.336 0.512 28.672 2.048 41.984-13.312 16.384-36.352 38.912-63.488 32.256 14.848 48.64 106.496 136.192 183.808 137.216 23.552 11.776 49.664 19.456 76.288 23.552-5.12 7.68-9.216 15.872-12.288 25.088-10.752 32.256-3.072 66.56 22.528 101.888v1.024c13.824 16.896 32.768 25.088 53.248 23.04 20.48-2.048 39.424-13.824 49.152-31.744 9.728-17.408 8.192-33.28 6.656-48.64-1.536-12.288-2.56-25.088 1.024-41.472 3.072-14.336 8.704-28.672 14.848-40.448 46.592-13.824 92.16-37.888 133.632-72.192 22.016 19.968 48.64 47.104 73.728 73.728-2.048 23.04 6.656 47.616 24.064 68.096 0 0.512 0.512 0.512 0.512 0.512 2.56 2.56 4.608 5.12 7.168 7.68 0.512 0.512 1.024 1.024 1.536 1.024l9.216 7.68c42.496 30.72 97.28 27.648 122.88-7.168 4.608-6.656 8.192-13.824 10.24-22.016 5.12 7.68 10.752 15.36 16.384 23.04h-0.512l11.776 14.848c7.68 9.216 20.48 25.6 36.864 37.888 0.512 0.512 1.024 0.512 1.024 1.024 19.968 14.848 40.448 21.504 61.952 10.24 1.024-0.512 1.536-1.024 2.56-1.536 0.512-0.512 1.024-0.512 1.536-1.024h0.512l0.512-0.512c1.536-1.536 3.072-2.56 4.608-4.096 10.24-9.728 15.36-23.552 14.848-39.936v-0.512-0.512c3.584-1.024 3.584-2.048 3.072-3.584z" fill="#231815" p-id="4524"></path><path d="M756.736 274.944c-18.432 4.096-34.816 14.848-49.664 28.16-4.608 26.112-13.312 51.712-22.528 69.632 0 2.048-0.512 3.584-0.512 5.632 15.872-7.168 35.328-12.8 55.296-14.848 20.48-2.048 35.84 1.536 48.128 4.096 13.824 3.072 23.552 5.12 35.328 0 11.776-5.12 20.992-16.384 23.552-29.184 0.512-2.048 0.512-4.608 0.512-7.168 0-8.192-2.56-17.92-11.776-27.648-26.112-24.576-52.736-34.304-78.336-28.672zM308.224 699.392c-7.68 9.216-13.312 18.944-16.896 29.696-2.048 7.168-3.584 14.336-3.584 21.504 0 18.944 7.68 38.912 22.528 59.392 11.776 13.824 24.576 15.872 33.28 14.848 12.8-1.024 25.6-9.216 31.744-19.968 3.584-6.656 5.12-12.8 5.12-19.968 0-4.608-0.512-9.728-1.024-15.36-0.512-6.656-1.536-14.336-1.536-22.528 0-7.68 0.512-16.384 2.56-25.6 2.048-9.728 5.12-19.456 8.704-28.672-27.136 5.632-54.784 7.68-80.896 6.656zM612.352 494.08c-13.312 9.728-27.648 17.408-43.008 23.04-1.024 0.512-2.048 0.512-2.56 1.024-5.632 2.048-11.776 3.584-17.408 5.12-5.12 1.024-10.752 2.56-15.872 3.072h-2.048c-8.192 1.024-16.896 2.048-25.088 2.048-67.072 0-133.12-42.496-164.352-103.936-2.048 3.584-3.584 6.144-5.12 7.168-15.36 14.336-36.352-31.744-36.352-31.744s18.432 20.992 28.672 17.408c5.632-2.048 30.208-72.704 50.176-132.096-23.552 11.776-48.64 25.088-75.264 40.96-19.968-18.944-89.6-51.712-89.6-51.712s-15.36 87.04-9.216 127.488c-14.336 9.728-30.208 22.528-47.616 37.376 43.52 7.68 97.28 16.384 105.984 16.384 15.36 0 4.608-34.304 4.608-34.304 16.896 26.624 16.896 47.616 9.728 50.176-1.024 0.512-4.096 0-9.216 0 28.16 25.6 44.544 60.928 44.544 98.304 0 37.888-16.384 73.216-44.544 98.816 11.264 2.56 22.528 4.096 33.792 5.12 5.12 0.512 10.752 0.512 15.872 0.512 6.144 0 12.288 0 18.432-0.512 22.528-1.024 45.568-4.608 68.608-11.264 6.144-1.536 11.776-3.584 17.92-5.632 5.632-2.048 11.264-4.096 17.408-6.656 31.232-12.8 62.464-30.72 91.136-54.272l1.024-1.024c0.512-0.512 1.536-1.024 2.048-1.536 2.048-1.536 4.096-3.584 6.144-5.12 2.56-2.048 5.12-4.608 7.68-6.656 0.512-0.512 1.024-0.512 1.024-1.024 27.648-25.6 50.176-54.272 67.584-83.968 0-0.512 0.512-1.024 0.512-1.536 1.536-2.56 2.56-4.608 3.584-7.168-2.56 2.048-4.608 4.096-7.168 5.632-1.024-0.512-1.536 0-2.048 0.512z m-203.264 102.4c-30.208 25.6-74.752-26.624-74.752-26.624s46.08 35.328 66.048 16.896c19.968-18.432-11.264-64-11.264-64s50.176 48.128 19.968 73.728z" fill="#F9D4BC" p-id="4525"></path><path d="M640.512 506.368c-18.432 32.256-42.496 63.488-71.68 90.624l-1.024 1.024c9.216 8.192 18.432 17.408 28.16 26.624 0.512 0 1.024-0.512 2.048-0.512 14.336-3.584 38.912-12.8 65.024-38.4 23.552-23.04 32.256-41.472 34.816-52.224 0-0.512 0.512-1.024 0.512-1.536-20.48-10.752-39.936-19.968-56.32-27.648-1.024 1.024-1.536 1.536-1.536 2.048zM803.84 598.016c-13.312-9.728-27.136-18.944-40.96-27.648 0 0.512-0.512 1.024-0.512 1.536-6.656 11.776-19.456 31.744-43.008 55.808 5.632 1.536 11.264 3.072 16.896 5.632 1.024 0.512 1.536 0.512 2.56 1.024 1.536 0.512 3.584 1.536 5.12 2.56 1.536 0.512 3.072 1.536 4.608 2.56 1.024 0.512 2.56 1.536 3.584 2.048 2.56 1.536 5.12 3.584 8.192 5.12 4.096 3.072 8.192 6.656 11.776 10.24 19.968-14.848 33.28-38.4 39.424-50.688 0-0.512 0.512-1.024 0.512-1.024-4.096-4.096-8.192-7.168-8.192-7.168zM578.56 505.344c9.216-4.096 17.92-9.216 26.112-14.848 0.512-0.512 1.024-0.512 1.536-1.024 3.072-2.56 6.656-4.608 9.728-7.168 3.072-2.56 5.632-5.12 8.704-7.68 0.512-0.512 1.024-0.512 1.536-1.024l4.096-4.096c9.728-20.992 16.896-41.984 20.992-62.976 1.024-4.096 1.536-8.192 2.048-12.288 0.512-4.096 1.536-8.192 2.048-12.8 0.512-2.56 0.512-5.12 0.512-7.68v-2.048c0.512-6.656 1.024-12.8 1.024-19.456v-4.608c0-6.144-0.512-12.8-1.024-18.944-0.512-6.656-1.536-13.312-3.072-19.456-12.288-20.992-29.696-38.4-50.176-51.712-24.576-15.36-53.76-24.576-84.992-24.576-9.216 0-18.432 1.024-27.136 2.56-18.944 7.168-40.448 15.872-64 26.112-8.192 5.632-15.36 12.288-22.528 18.944-0.512 1.024-1.536 1.536-2.048 2.56-11.776 28.672-24.064 59.392-35.328 84.992l-1.536 3.072c-1.024 2.56-2.048 4.608-3.072 7.168-0.512 0.512-0.512 1.024-0.512 1.536v5.632c0 33.792 11.264 65.536 30.72 90.624 31.744 27.648 72.704 44.544 114.176 44.544 10.752 0 21.504-1.024 31.744-3.072 0.512 0 1.536 0 2.048-0.512 5.632-1.024 11.264-2.56 16.384-4.096 6.656-2.048 12.8-4.096 18.944-7.168 1.024 0.512 2.048 0 3.072-0.512z m-23.04-9.216c-12.288 4.096-25.088 6.656-38.912 6.656-66.048 0-119.808-52.224-119.808-116.224s53.76-116.224 119.808-116.224c58.368 0 107.008 40.448 117.76 94.208 1.536 7.168 2.048 14.336 2.048 22.016 0 3.072 0 6.144-0.512 9.216-2.048 26.624-13.824 50.688-31.232 69.12-0.512 0.512-0.512 1.024-1.024 1.024-2.56 2.56-5.632 5.632-8.192 7.68-5.12 4.096-10.24 7.68-15.36 11.264-6.656 4.096-13.824 7.68-21.504 10.24-1.536 0.512-2.048 1.024-3.072 1.024zM109.056 482.816c0.512 8.704 1.536 17.92 3.072 26.112 4.096 22.528 11.776 44.032 22.528 62.976-2.048-12.288-3.072-24.064-2.56-35.84 1.536-31.232 12.8-58.368 32.256-75.776-9.728-1.536-19.456-3.072-27.648-4.096-9.216 8.704-18.432 17.408-27.648 26.624z" fill="#6CBB63" p-id="4526"></path><path d="M905.728 714.24c-18.944-32.768-47.104-67.072-78.336-95.232-7.68 14.848-21.504 36.864-41.984 52.736 1.536 2.048 3.072 4.096 4.096 6.144 4.608 7.68 8.192 15.36 10.24 23.552 6.144 8.192 12.8 16.896 19.456 26.624 7.168 10.24 15.36 20.992 23.04 31.744 15.36-4.096 28.16-10.24 38.4-16.896 11.776-8.192 19.968-19.456 25.088-28.672zM699.392 718.336c3.584-4.096 6.144-8.704 8.704-13.312 0.512-1.024 1.024-1.536 1.536-2.56 2.048-4.608 4.096-9.728 5.12-15.36 1.024-4.096 2.048-8.704 2.048-12.8v-2.048c0.512-7.168 0-14.336-1.536-21.504-6.656-1.536-13.312-2.56-19.456-2.56-2.048 0-3.584 0-5.632 0.512-1.024 0-2.048 0-3.072 0.512-1.024 0-2.048 0.512-3.584 0.512-9.728 2.048-17.92 6.656-24.576 13.312-1.024 1.024-2.56 2.56-3.584 4.096l-0.512 0.512c-1.024 1.536-2.048 2.56-2.56 4.096-1.536 2.56-2.048 5.12-3.072 7.68 0 0.512-0.512 1.024-0.512 1.536-1.024 4.608-1.536 9.216-1.536 13.824 0 6.656 1.536 13.824 4.096 20.992 0.512 1.536 1.536 3.072 2.048 4.608 2.048 4.608 5.12 9.728 8.704 14.336 13.824-1.536 28.672-6.144 37.376-16.384zM910.848 739.84c-24.064 29.184-54.784 34.304-54.784 34.304s1.536 2.048 4.096 5.12c8.704 11.264 31.744 36.352 48.128 26.624 17.92-11.264 11.264-48.128 5.12-60.928-1.024-2.56-1.536-4.608-2.56-5.12zM733.696 705.536c-1.024-0.512-1.536-1.024-2.56-1.536 0 0-12.8 34.304-44.032 45.056 1.024 1.024 1.536 2.048 2.56 2.56 11.264 11.264 30.72 17.92 45.568 17.408h0.512c7.168-0.512 13.312-2.56 17.408-7.168 11.264-13.312-2.56-45.056-19.456-56.32zM360.96 384v-3.584c0-0.512 0.512-1.024 0.512-1.536 1.024-2.048 2.048-4.608 3.072-7.168l1.536-3.072c-8.192 18.944-15.872 35.328-21.504 46.592 0.512 0.512 0.512 1.024 1.024 2.048 10.752 23.04 26.624 43.52 45.568 60.416-19.456-25.6-30.72-56.832-30.72-90.624 0.512-1.536 0.512-2.56 0.512-3.072zM611.328 220.672c-3.584-4.608-7.68-8.704-11.264-12.288-0.512-0.512-1.536-1.024-2.048-1.024-19.456 2.56-55.296 9.728-107.52 29.184 8.704-1.536 17.92-2.56 27.136-2.56 31.232 0 60.416 9.216 84.992 24.576 20.48 12.8 37.888 30.72 50.176 51.712-6.144-33.28-19.968-63.488-41.472-89.6zM406.528 271.36c-1.536 4.096-3.072 8.192-5.12 12.288 0.512-1.024 1.536-1.536 2.048-2.56 6.656-7.168 14.336-13.312 22.528-18.944-5.632 2.56-11.776 5.632-17.92 8.192-0.512 0.512-1.024 0.512-1.536 1.024zM526.336 339.968c-23.04 0-41.984 18.432-41.984 40.96s18.944 40.96 41.984 40.96c23.04 0 41.984-18.432 41.984-40.96s-18.944-40.96-41.984-40.96zM212.48 505.344c-18.944 7.168-26.624 32.256-17.408 56.32 9.216 24.064 31.744 37.888 50.688 30.72 18.944-7.168 26.624-32.256 17.408-56.32-9.216-24.576-32.256-37.888-50.688-30.72z" fill="#FFFFFF" p-id="4527"></path></svg>